<?xml version="1.0" encoding="iso-8859-1"?>
<!-- Uploaded to: SVG Repo, www.svgrepo.com, Generator: SVG Repo Mixer Tools -->
<!DOCTYPE svg PUBLIC "-//W3C//DTD SVG 1.1//EN" "http://www.w3.org/Graphics/SVG/1.1/DTD/svg11.dtd">
<svg fill="#26c7eb" version="1.1" id="Capa_1" xmlns="http://www.w3.org/2000/svg"
	xmlns:xlink="http://www.w3.org/1999/xlink" width="800px" height="800px" viewBox="0 0 32 32" xml:space="preserve">
	<g>
		<path d="M24.445,18.147c-1.412-0.768,3.654-4.193,1.639-6.533c-2.018-2.34-6.436-3.766-7.15-9.067
		c-3.586,4.799-3.321,9.058-2.125,12.152c-0.354-0.034-0.641,0.351-0.764,0.238c-0.174-0.16-0.168-0.707-0.167-0.712
		c0.004-0.237-0.08-0.497-0.253-0.72c-0.231-0.298-0.563-0.453-0.865-0.441c-0.024-1.197,0.217-3.201,0.648-4.86
		c0.155-0.594-0.014-1.092-0.477-1.403c-0.597-0.403-1.558-0.381-2.142,0.052c-0.457,0.343-0.617,0.871-0.44,1.486
		c0.011,0.067,0.031,0.136,0.077,0.193c0.141,0.181,0.4,0.214,0.581,0.073c0.181-0.141,0.214-0.4,0.073-0.582
		c-0.117-0.15-0.316-0.19-0.485-0.12c-0.017-0.401,0.175-0.652,0.383-0.796c0.477-0.353,1.29-0.373,1.776-0.044
		c0.241,0.163,0.498,0.479,0.347,1.062c-0.234,0.899-0.73,3.459-0.661,5.027c-0.025,0.015-0.052,0.027-0.076,0.045
		c-1.504-0.451-4.095-0.602-5.022-0.597C8.741,12.604,8.497,12.276,8.4,12c-0.199-0.551,0.022-1.333,0.481-1.708
		c0.19-0.166,0.481-0.289,0.865-0.174c-0.109,0.146-0.12,0.349-0.003,0.499c0.141,0.181,0.401,0.214,0.582,0.073
		c0.181-0.141,0.213-0.401,0.072-0.581c-0.045-0.059-0.105-0.096-0.169-0.123c-0.551-0.324-1.103-0.297-1.547,0.061
		c-0.563,0.459-0.823,1.384-0.58,2.062c0.188,0.524,0.629,0.812,1.242,0.81c1.684-0.009,3.641,0.242,4.804,0.554
		c-0.132,0.302-0.072,0.71,0.185,1.04c0.173,0.223,0.403,0.368,0.634,0.423c0.002,0,0.536,0.192,0.63,0.425
		c0.063,0.157-0.211,0.339-0.184,0.718C12.614,13.939,6.93,11.134,0,16.104c5.286,0.82,6.626,5.265,8.926,7.326
		c2.3,2.061,5.823-2.938,6.563-1.511c-3.437,4.837-1.189,7.533-1.189,7.533s1.956-1.931,3.753-2.272
		c1.242-0.265,0.768-4.336,1.242-5.074c0.223-0.348-0.204-1.313-0.721-2.244c1.287,1.226,2.996,2.8,3.753,3.627
		c-0.458-0.59-1.446-2.323-2.327-3.898c0.178,0.177,0.288,0.273,0.288,0.273s3.521,2.554,4.269,2.093
		c0.75-0.462,4.811,0.094,5.098-1.144C30.033,19.022,32,17.104,32,17.104S29.35,14.805,24.445,18.147z" />
	</g>
</svg>